<?xml version="1.0" encoding="UTF-8" standalone="no"?>
<!-- Created with Inkscape (http://www.inkscape.org/) -->

<svg
   width="30.143412mm"
   height="30.142202mm"
   viewBox="0 0 30.143412 30.142202"
   version="1.1"
   id="svg1"
   xml:space="preserve"
   xmlns="http://www.w3.org/2000/svg"
   xmlns:svg="http://www.w3.org/2000/svg"><defs
     id="defs1" /><g
     id="layer1"
     transform="translate(-73.868913,-124.03662)"><g
       id="g1"
       transform="matrix(0.26458333,0,0,0.26458333,21.685721,65.448)"><g
         id="g3013"
         transform="matrix(1.0666666,0,0,1.0666666,41.933349,41.933349)"><g
           id="g2"
           transform="matrix(0.93750007,0,0,0.93750007,9.7974501,22.20251)"><g
             id="g3"
             transform="translate(126.13077,192.37797)"><path
               fill="#f05133"
               d="m 130.49296,15.330792 -49.745002,-49.7389 c -2.8622,-2.8648 -7.5082,-2.8648 -10.374,0 l -10.329001,10.33 13.102001,13.102 c 3.0459,-1.0284 6.5371,-0.33888 8.9639,2.0883995 2.4394,2.4424 3.124,5.9634 2.0698,9.01950001 l 12.628,12.62800049 c 3.0551,-1.0528 6.580002,-0.37262 9.019502,2.0712 3.4106,3.4096 3.4106,8.9345 0,12.345 -3.4111,3.4116 -8.936002,3.4116 -12.349002,0 -2.5645,-2.5665 -3.1988,-6.3345 -1.8999,-9.4942 l -11.777,-11.7770005 -10e-4,30.9910005 c 0.8315,0.41162 1.6162,0.961 2.3091,1.6509 3.4096,3.4092 3.4096,8.933099 0,12.347999 -3.4106,3.4091 -8.938,3.4091 -12.345,0 -3.4101,-3.4146 -3.4101,-8.938499 0,-12.347999 0.84275,-0.84125 1.8179,-1.478 2.8584,-1.9048 V 5.3628915 c -1.041,-0.425 -2.015,-1.057 -2.859,-1.905 -2.583,-2.58099999 -3.2051,-6.372 -1.8804,-9.5439 l -12.916001,-12.9179995 -34.106,34.105 c -2.8657,2.867 -2.8657,7.513 0,10.378 l 49.742001,49.738999 c 2.8638,2.8648 7.5082,2.8648 10.376,0 L 130.49236,25.713992 c 2.8648,-2.8662 2.8648,-7.5136 0,-10.379"
               id="path4" /></g></g></g></g></g></svg>
