<?xml version="1.0" encoding="UTF-8" standalone="no"?>
<!-- Created with Inkscape (http://www.inkscape.org/) -->

<svg
   width="33.344128mm"
   height="33.503036mm"
   viewBox="0 0 33.344128 33.503036"
   version="1.1"
   id="svg1"
   xml:space="preserve"
   xmlns="http://www.w3.org/2000/svg"
   xmlns:svg="http://www.w3.org/2000/svg"><defs
     id="defs1" /><g
     id="layer1"
     transform="translate(-76.983621,-135.07859)"><g
       id="g1"
       transform="matrix(0.26458333,0,0,0.26458333,21.685721,65.448)"><g
         id="g3013"
         transform="matrix(1.0666666,0,0,1.0666666,41.933349,41.933349)"><g
           id="g2"
           transform="matrix(0.93750007,0,0,0.93750007,9.7974501,22.20251)"><path
             style="fill:#000000"
             d="m 207.65571,322.85095 c -4.76681,-0.86229 -10.7909,-2.99502 -16.58709,-5.8724 -14.67808,-7.28658 -27.22217,-18.19913 -31.27209,-35.3515 -2.24502,-9.50819 -3.2664,-12.00179 -3.17492,-20.74156 0.0898,-8.57843 0.44259,-13.08516 3.17492,-20.74155 8.23691,-23.08098 26.6648,-37.66684 50.16529,-41.50737 8.82624,-1.44241 10.53219,-1.44241 19.35843,0 20.93416,3.42113 37.67627,15.62691 46.65923,34.01676 5.30017,10.85047 6.66156,16.68941 6.66156,28.57129 0,30.3491 -21.78775,56.36939 -51.65816,61.69339 -9.53809,1.70004 -13.62335,1.6883 -23.32717,-0.0671 z m 26.67576,-33.71546 c -0.30868,-6.1875 -0.7028,-12.08997 -0.87583,-13.1166 -0.24158,-1.43335 0.67841,-2.16516 3.96361,-3.15283 6.11175,-1.83747 11.14772,-6.05889 13.45769,-11.28095 2.70116,-6.10643 2.18197,-19.79056 -0.90952,-23.97203 -1.61575,-2.18542 -1.94977,-3.86892 -1.63432,-8.23719 0.21806,-3.01972 -0.0173,-6.10105 -0.52295,-6.84741 -1.26602,-1.86856 -4.4715,-0.68675 -8.17064,3.01239 -2.7615,2.76149 -3.30667,2.93284 -6.1632,1.93705 -3.88918,-1.35578 -15.1959,-1.42298 -19.74829,-0.11737 -3.11984,0.89476 -3.72203,0.68395 -7.31267,-2.55999 -5.57617,-5.03773 -7.23783,-4.34344 -7.42363,3.10179 -0.0915,3.66812 -0.95362,7.7243 -2.22804,10.48314 -2.33532,5.05548 -2.92747,17.73966 -1.05903,22.6849 2.07055,5.48017 9.04125,10.97736 16.05141,12.65838 2.52141,0.60463 2.57666,0.77081 1.54341,4.6419 -1.0654,3.99153 -1.09993,4.01482 -5.9514,4.01482 -4.60767,0 -5.17449,-0.3067 -10.16441,-5.5 -3.77791,-3.93188 -6.03418,-5.5 -7.91362,-5.5 -1.44595,0 -2.629,0.45 -2.629,1 0,0.55 0.45295,1 1.00655,1 0.55361,0 3.01311,3.13044 5.46557,6.95652 5.02482,7.83922 8.31211,10.04348 14.97822,10.04348 h 4.54966 v 5 5 h 11.12583 11.12584 z"
             id="path3" /></g></g></g></g></svg>
