<?xml version="1.0" encoding="UTF-8" standalone="no"?>
<!-- Created with Inkscape (http://www.inkscape.org/) -->

<svg
   width="95.990829mm"
   height="108.84958mm"
   viewBox="0 0 95.990829 108.84958"
   version="1.1"
   id="svg1"
   xml:space="preserve"
   xmlns="http://www.w3.org/2000/svg"
   xmlns:svg="http://www.w3.org/2000/svg"><defs
     id="defs1" /><g
     id="layer1"
     transform="translate(-55.283559,-109.426)"><g
       id="g1"
       transform="matrix(0.26458333,0,0,0.26458333,21.685721,65.448)"><g
         id="g3013"
         transform="matrix(1.0666666,0,0,1.0666666,41.933349,41.933349)"><g
           id="g2"
           transform="matrix(0.93750007,0,0,0.93750007,9.7974501,22.20251)"><path
             fill="#e44d26"
             d="M 107.6,471 74.6,100.6 H 437.4 L 404.4,470.8 255.7,512"
             id="path2" /><path
             fill="#f16529"
             d="M 256,480.5 V 131 H 404.3 L 376,447"
             id="path3" /><path
             fill="#ebebeb"
             d="m 142,176.3 h 114 v 45.4 h -64.2 l 4.2,46.5 h 60 v 45.3 H 154.4 m 2,22.8 H 202 l 3.2,36.3 50.8,13.6 v 47.4 l -93.2,-26"
             id="path4" /><path
             fill="#ffffff"
             d="M 369.6,176.3 H 255.8 v 45.4 h 109.6 m -4.1,46.5 H 255.8 v 45.4 h 56 l -5.3,59 -50.7,13.6 v 47.2 l 93,-25.8"
             id="path5" /></g></g></g></g></svg>
