<?xml version="1.0" encoding="UTF-8" standalone="no"?>
<!-- Created with Inkscape (http://www.inkscape.org/) -->

<svg
   width="71.4375mm"
   height="15.114549mm"
   viewBox="0 0 71.4375 15.114549"
   version="1.1"
   id="svg1"
   xml:space="preserve"
   xmlns="http://www.w3.org/2000/svg"
   xmlns:svg="http://www.w3.org/2000/svg"><defs
     id="defs1" /><g
     id="layer1"
     transform="translate(-61.433507,-194.61585)"><g
       id="g1"
       transform="matrix(0.26458333,0,0,0.26458333,21.685721,65.448)"><g
         id="g3013"
         transform="matrix(1.0666666,0,0,1.0666666,41.933349,41.933349)"><g
           id="g2"
           transform="matrix(0.93750007,0,0,0.93750007,9.7974501,22.20251)"><path
             style="fill:#000000"
             d="m 97.8439,451.12517 v -28.54772 l 6.2123,0.29772 6.2123,0.29772 22.5377,27.91236 22.5377,27.91237 0.26557,-28.16237 0.26558,-28.16236 h 24.48442 24.48443 v 4.5 4.5 h -20.04381 -20.04381 l 0.29381,7.25 0.29381,7.25 15.75,0.27539 15.75,0.27539 7.8e-4,4.22461 7.9e-4,4.22461 H 181.09468 165.3439 l -0.29206,7.75 -0.29207,7.75 h 20.09957 20.09956 l -0.3075,4.25 -0.3075,4.25 H 173.86395 143.384 l -17.35115,-21.5 c -9.54313,-11.825 -17.76465,-21.65 -18.27005,-21.83334 -0.54085,-0.19619 -0.9189,8.75194 -0.9189,21.75 v 22.08334 h -4.5 -4.5 z m 119.70842,27.29772 c 4.61486,-6.05114 17.48346,-21.75056 18.18303,-22.18291 1.00218,-0.61939 6.43111,6.05646 5.93202,7.29448 -0.17791,0.44131 -3.02347,4.23227 -6.32347,8.42437 l -6,7.62199 -6.37244,0.046 c -4.9447,0.0357 -6.15886,-0.23403 -5.41914,-1.20396 z m 39.06206,-6.5 c -3.52115,-4.2625 -13.93444,-17.0875 -23.14064,-28.5 l -16.73854,-20.75 h 6.36002 6.36001 l 7.94434,9.94908 c 4.36938,5.47199 8.16933,9.96758 8.44433,9.9902 0.275,0.0226 4.1,-4.45006 8.5,-9.93928 l 8,-9.98041 6.37046,-0.01 6.37047,-0.01 -3.44807,4.25 c -1.89644,2.3375 -6.72391,8.27645 -10.7277,13.19766 -4.0038,4.92122 -7.49397,9.50623 -7.75594,10.18892 -0.26198,0.68269 4.20675,7.00624 9.9305,14.05233 5.72374,7.0461 10.7379,13.37359 11.14256,14.06109 0.55482,0.9426 -0.73306,1.25 -5.23697,1.25 h -5.97273 z m 49.94324,7.13038 c -0.39254,-0.39254 -0.71372,-11.21372 -0.71372,-24.04705 v -23.33333 h -10 -10 v -4.5 -4.5 h 24.5 24.5 v 4.5 4.5 h -9.4819 -9.4819 l -0.2681,23.75 -0.2681,23.75 -4.03628,0.29705 c -2.21995,0.16338 -4.35745,-0.0241 -4.75,-0.41667 z m 29.28628,-0.79705 c 0,-0.87083 0.7125,-1.58333 1.58333,-1.58333 0.87084,0 1.40521,0.53437 1.1875,1.1875 -0.61807,1.85422 -2.77083,2.16176 -2.77083,0.39583 z m 6.97995,-0.1075 c -1.73204,-2.08698 -0.33888,-3.18109 2.10621,-1.6541 3.13115,1.95543 3.91384,0.57941 3.91384,-6.88075 0,-5.5031 0.31074,-6.94098 1.5,-6.94098 1.19937,0 1.5,1.49609 1.5,7.46481 0,6.35679 -0.28711,7.61847 -1.93426,8.5 -2.75951,1.47685 -5.61801,1.27959 -7.08579,-0.48898 z m 13.67504,-0.30457 c -0.91024,-1.00581 -1.65499,-2.13081 -1.65499,-2.5 0,-1.21738 2.31157,-0.69927 4.0996,0.91887 2.13826,1.9351 6.15966,0.98902 5.70727,-1.34271 -0.16878,-0.86993 -2.21937,-2.21898 -4.55687,-2.99789 -3.68905,-1.22928 -4.25,-1.79652 -4.25,-4.29768 0,-4.84373 5.77682,-6.57459 10.13922,-3.03793 3.10203,2.51486 1.58256,3.94366 -1.96521,1.84794 -1.67937,-0.99203 -3.29455,-1.3054 -4.11495,-0.79836 -2.01724,1.24672 -0.60338,3.68306 2.60458,4.48821 3.66828,0.92068 5.33636,2.35837 5.33636,4.5993 0,4.60917 -8.00508,6.81083 -11.34501,3.12025 z"
             id="path24" /></g></g></g></g></svg>
