<?xml version="1.0" encoding="UTF-8" standalone="no"?>
<!-- Created with Inkscape (http://www.inkscape.org/) -->

<svg
   version="1.1"
   id="svg1"
   width="678.83081"
   height="601.80469"
   viewBox="0 0 678.83081 601.80469"
   xmlns="http://www.w3.org/2000/svg"
   xmlns:svg="http://www.w3.org/2000/svg">
  <defs
     id="defs1" />
  <g
     id="g1"
     transform="translate(-796.27612,-58.473118)">
    <g
       id="g2"
       transform="translate(782.22397,46.884086)">
      <path
         style="fill:#333333"
         d="m 194.57221,610.95186 c -22.37064,-6.29274 -35.18475,-26.71686 -39.19472,-62.47159 -3.26523,-29.11425 3.62089,-75.74535 18.21646,-123.35723 1.65983,-5.41451 2.83405,-10.02838 2.60937,-10.25305 -0.22467,-0.22468 -7.56963,-2.17721 -16.32212,-4.33895 C 100.30081,395.81548 57.533891,375.88733 33.383974,351.58697 25.532463,343.68655 23.050271,340.40957 19.65014,333.45562 c -7.463974,-15.26532 -7.463974,-26.71075 0,-41.97607 3.400131,-6.95395 5.882323,-10.23093 13.733834,-18.13135 24.149917,-24.30036 66.916836,-44.22852 126.497226,-58.94407 8.75249,-2.16175 16.09745,-4.11427 16.32212,-4.33895 0.22468,-0.22468 -0.94954,-4.83855 -2.60937,-10.25305 -11.343,-37.00174 -17.17497,-67.94596 -18.72559,-99.35724 -2.00177,-40.550471 9.86011,-72.465985 30.82713,-82.94333 8.15508,-4.075139 15.56827,-5.40793 26.27209,-4.72336 32.94244,2.106857 75.32788,28.359817 123.25,76.339358 l 18.25,18.271862 18.25,-18.271862 c 39.96229,-40.010168 76.20534,-64.978381 106.9877,-73.704947 9.34876,-2.650304 23.51932,-3.573285 30.98178,-2.017959 23.69655,4.938835 37.72194,26.058759 41.87062,63.050241 3.26523,29.114257 -3.6209,75.745357 -18.21646,123.357237 -1.65983,5.4145 -2.83405,10.02837 -2.60937,10.25305 0.22467,0.22468 7.56963,2.1772 16.32212,4.33895 59.58038,14.71555 102.34731,34.64371 126.49722,58.94407 7.85151,7.90042 10.33371,11.1774 13.73384,18.13135 7.46397,15.26532 7.46397,26.71075 0,41.97607 -3.40013,6.95395 -5.88233,10.23093 -13.73384,18.13135 -24.14991,24.30036 -66.91684,44.22851 -126.49722,58.94407 -8.75249,2.16174 -16.09745,4.11427 -16.32212,4.33895 -0.22468,0.22467 0.94954,4.83854 2.60937,10.25305 11.343,37.00174 17.17497,67.94596 18.72558,99.35723 1.16579,23.61575 -2.36806,44.59137 -10.21649,60.64124 -9.62518,19.68328 -24.81093,28.43707 -46.88273,27.02546 -32.94243,-2.10686 -75.32787,-28.35982 -123.25,-76.33936 l -18.25,-18.27187 -18.25,18.27187 c -39.94647,39.99433 -76.04708,64.8709 -106.98769,73.72415 -9.71871,2.78088 -26.3287,3.4817 -33.65768,1.4201 z m 30.85183,-18.52546 c 30.02789,-7.19826 68.33686,-36.37141 112.30418,-85.52217 l 3.63483,-4.06335 -10.19773,-12.50408 c -11.42411,-14.00782 -25.73265,-32.89306 -37.40494,-49.36922 l -7.7928,-11 -7,-0.70974 c -28.67247,-2.90717 -47.2367,-5.13933 -61,-7.33462 -8.8,-1.40363 -17.77358,-2.64286 -19.9413,-2.75385 l -3.94131,-0.20179 -4.33035,13.5 c -5.46501,17.03731 -11.61071,41.9289 -15.02446,60.85268 -2.33715,12.95581 -2.64478,17.24569 -2.66389,37.14732 -0.0192,20.04891 0.21365,23.33957 2.13791,30.20687 7.83358,27.95644 24.34762,38.19374 51.21986,31.75195 z m 285.38462,-1.25743 c 10.37245,-4.74866 17.47755,-14.63204 21.92233,-30.49452 1.92426,-6.8673 2.15716,-10.15796 2.13791,-30.20687 -0.0191,-19.90163 -0.32674,-24.19151 -2.6639,-37.14732 -3.41374,-18.92378 -9.55944,-43.81537 -15.02445,-60.85268 l -4.33035,-13.5 -3.94131,0.20179 c -2.16772,0.11099 -11.14131,1.35022 -19.94131,2.75385 -13.7633,2.19529 -32.32752,4.42745 -61,7.33462 l -7,0.70974 -7.79279,11 c -11.67229,16.47616 -25.98084,35.3614 -37.40494,49.36922 l -10.19774,12.50408 3.63483,4.06335 c 28.94645,32.35903 56.15201,56.7458 78.76064,70.60019 25.67979,15.73636 47.80632,20.54769 62.84108,13.66455 z M 364.09322,475.71758 c 9.7621,-12.39682 27.38964,-36.1048 30.74361,-41.34831 l 1.662,-2.59832 h -43.03125 -43.03124 l 1.66199,2.59832 c 6.25158,9.77354 40.14695,54.09831 41.36925,54.09831 0.32199,0 5.10352,-5.7375 10.62564,-12.75 z m 35.70888,-63.90136 10.64565,-0.65136 6.88496,-10.59864 c 12.33981,-18.99576 28.98868,-47.80297 43.54709,-75.34864 l 6.73862,-12.75 -6.73862,-12.75 c -14.55841,-27.54566 -31.20728,-56.35287 -43.54709,-75.34864 l -6.88496,-10.59864 -10.64565,-0.65136 c -13.78666,-0.84354 -78.88237,-0.84354 -92.66904,0 l -10.64564,0.65136 -6.88497,10.59864 c -12.3398,18.99577 -28.98868,47.80298 -43.54708,75.34864 l -6.73862,12.75 6.73862,12.75 c 14.59085,27.60707 31.20941,56.35647 43.61828,75.45783 l 6.95616,10.70783 7.16889,0.34347 c 13.89885,0.66593 85.49174,0.73268 96.0034,0.0895 z m -59.4227,-50.79316 c -7.32221,-2.0199 -16.94437,-7.64416 -22.38375,-13.08354 -5.62465,-5.62464 -11.07864,-15.10643 -13.13794,-22.84033 -1.75155,-6.57812 -1.75155,-18.68509 0,-25.26321 4.56171,-17.13197 18.8463,-31.41656 35.97827,-35.97827 6.57812,-1.75155 18.68509,-1.75155 25.26321,0 17.13196,4.56171 31.41656,18.8463 35.97827,35.97827 1.75155,6.57812 1.75155,18.68509 0,25.26321 -4.56171,17.13196 -18.84631,31.41656 -35.97827,35.97827 -6.30274,1.67822 -19.54045,1.65022 -25.71979,-0.0544 z m -69.15096,46.19452 c -6.70134,-10.26298 -22.75281,-37.53365 -31.43845,-53.4124 -5.81769,-10.63568 -10.72414,-19.3376 -10.90322,-19.3376 -0.17908,0 -1.29749,2.1375 -2.48536,4.75 -15.41126,33.89426 -26.30265,61.20976 -24.61345,61.73029 4.31171,1.32869 59.22432,8.22758 67.04463,8.42309 3.78306,0.0946 3.83386,0.0489 2.39585,-2.15338 z m 185.73914,0.25284 c 17.3455,-1.90767 45.74449,-5.74759 48.17963,-6.51454 1.68817,-0.53168 -9.18885,-27.81469 -24.61345,-61.7383 -1.18787,-2.6125 -2.30628,-4.75 -2.48536,-4.75 -0.17908,0 -5.08553,8.70192 -10.90322,19.3376 -8.68564,15.87875 -24.73711,43.14942 -31.43845,53.4124 -1.38007,2.11355 -1.32574,2.24947 0.89584,2.24125 1.30076,-0.005 10.46501,-0.8996 20.36501,-1.98841 z M 189.44114,379.41821 c 7.97387,-20.83911 14.88337,-37.23908 22.44788,-53.28093 3.06821,-6.50667 5.57856,-12.65803 5.57856,-13.6697 0,-1.01166 -2.50747,-7.16302 -5.57215,-13.66969 -7.44863,-15.81425 -17.32978,-39.34246 -23.57069,-56.12464 -2.80326,-7.53811 -5.38641,-14.02667 -5.74033,-14.41901 -0.35393,-0.39233 -6.64304,0.60635 -13.9758,2.21929 -69.577662,15.30459 -118.769257,40.169 -131.742403,66.59061 -2.580476,5.25549 -2.898624,6.94615 -2.898624,15.40344 0,8.4573 0.318148,10.14796 2.898624,15.40345 11.278191,22.96959 49.604269,44.66485 107.101373,60.62691 10.73658,2.98063 36.7754,8.89082 37.89813,8.60196 0.49397,-0.12709 3.90292,-8.08385 7.57543,-17.68169 z m 349.02644,15.02109 c 67.89369,-14.58873 118.69699,-40.2867 131.60138,-66.56827 2.58048,-5.25549 2.89862,-6.94615 2.89862,-15.40345 0,-8.45729 -0.31814,-10.14795 -2.89862,-15.40344 -12.97315,-26.42161 -62.16474,-51.28602 -131.7424,-66.59061 -7.33276,-1.61294 -13.62187,-2.61162 -13.9758,-2.21929 -0.35393,0.39234 -2.93708,6.8809 -5.74033,14.41901 -6.24092,16.78218 -16.12207,40.31039 -23.57069,56.12464 -3.06469,6.50667 -5.57216,12.65803 -5.57216,13.66969 0,1.01167 2.50747,7.16303 5.57216,13.6697 7.02269,14.90995 17.35753,39.37869 22.94744,54.3303 2.3647,6.325 4.78298,12.74788 5.37395,14.27307 0.84639,2.18438 1.55552,2.66341 3.34047,2.25652 1.24629,-0.2841 6.54098,-1.43514 11.76598,-2.55787 z M 240.32044,270.21758 c 6.10299,-11.1375 15.78652,-27.9 21.51896,-37.25 5.73243,-9.35 10.01125,-17.15254 9.50847,-17.33897 -1.9299,-0.71563 -65.02128,6.84405 -69.55991,8.33475 -1.68616,0.55381 9.16239,27.77244 24.61345,61.75422 1.18787,2.6125 2.30892,4.75 2.49122,4.75 0.1823,0 5.32482,-9.1125 11.42781,-20.25 z m 240.21332,15.5 c 15.45105,-33.98178 26.29961,-61.20041 24.61345,-61.75422 -4.53863,-1.4907 -67.63002,-9.05038 -69.55991,-8.33475 -0.50278,0.18643 3.77603,7.98897 9.50847,17.33897 5.73244,9.35 15.41597,26.1125 21.51896,37.25 6.10299,11.1375 11.2455,20.25 11.42781,20.25 0.1823,0 1.30335,-2.1375 2.49122,-4.75 z M 218.46758,202.90389 c 13.33423,-2.1025 32.26584,-4.36383 60.5,-7.22656 l 7,-0.70975 7.7928,-11 c 11.67229,-16.47615 25.98083,-35.3614 37.40494,-49.36921 l 10.19773,-12.50409 -3.63483,-4.06335 C 315.65866,93.359518 294.58854,73.231787 276.96758,59.987887 222.86593,19.325111 186.01826,20.85833 174.27922,64.260715 c -3.27893,12.123096 -3.67911,38.360465 -0.88152,57.795495 2.77766,19.29655 8.05161,42.83595 14.09515,62.91137 7.05751,23.44359 6.22136,21.87761 11.24721,21.06437 2.32514,-0.37623 11.20252,-1.78386 19.72752,-3.12806 z m 298.74317,-10.43631 c 5.47103,-17.17586 11.60857,-42.08446 14.99425,-60.85268 2.33716,-12.9558 2.64479,-17.24568 2.6639,-37.147317 0.0192,-20.048908 -0.21365,-23.339566 -2.13791,-30.206868 -7.73076,-27.589472 -24.51358,-38.14119 -50.70335,-31.878275 -30.53443,7.301882 -68.55837,36.168457 -112.82477,85.65301 l -3.63891,4.06786 8.56757,10.43214 c 11.27011,13.72284 27.94788,35.67761 37.72057,49.65572 4.31579,6.17297 8.35733,11.641 8.98119,12.15117 0.62386,0.51018 6.98429,1.43887 14.13429,2.06376 18.08774,1.58081 43.20976,4.76881 59.36523,7.53348 7.49912,1.28332 14.74695,2.26462 16.10627,2.18066 2.26649,-0.13999 2.82821,-1.27251 6.77167,-13.65266 z M 394.83683,190.5659 c -6.25157,-9.77354 -40.14695,-54.09832 -41.36925,-54.09832 -1.2223,0 -35.11767,44.32478 -41.36925,54.09832 l -1.66199,2.59831 h 43.03124 43.03125 z"
         id="path2" />
    </g>
  </g>
</svg>
