<svg width="29" height="29" viewBox="0 0 29 29" fill="none" xmlns="http://www.w3.org/2000/svg">
<g clip-path="url(#clip0_10_60)">
<path fill-rule="evenodd" clip-rule="evenodd" d="M14.5 0C15.0339 0 15.4667 0.432792 15.4667 0.966667V4.83333C15.4667 5.3672 15.0339 5.8 14.5 5.8C13.9661 5.8 13.5333 5.3672 13.5333 4.83333V0.966667C13.5333 0.432792 13.9661 0 14.5 0ZM4.24695 4.24695C4.62446 3.86945 5.23651 3.86945 5.61403 4.24695L8.34817 6.98109C8.72567 7.35859 8.72567 7.97067 8.34817 8.34817C7.97067 8.72567 7.35859 8.72567 6.98109 8.34817L4.24695 5.61403C3.86945 5.23651 3.86945 4.62446 4.24695 4.24695ZM0.966667 13.5333C0.432792 13.5333 0 13.9661 0 14.5C0 15.0339 0.432792 15.4667 0.966667 15.4667H4.83333C5.3672 15.4667 5.8 15.0339 5.8 14.5C5.8 13.9661 5.3672 13.5333 4.83333 13.5333H0.966667ZM4.24695 24.753C3.86945 24.3755 3.86945 23.7636 4.24695 23.386L6.98109 20.6519C7.35859 20.2743 7.97067 20.2743 8.34817 20.6519C8.72567 21.0293 8.72567 21.6413 8.34817 22.0189L5.61403 24.753C5.23651 25.1306 4.62446 25.1306 4.24695 24.753ZM24.1667 13.5333C23.6329 13.5333 23.2 13.9661 23.2 14.5C23.2 15.0339 23.6329 15.4667 24.1667 15.4667H28.0333C28.5671 15.4667 29 15.0339 29 14.5C29 13.9661 28.5671 13.5333 28.0333 13.5333H24.1667ZM20.6519 8.34817C20.2743 7.97067 20.2743 7.35859 20.6519 6.98109L23.386 4.24695C23.7636 3.86945 24.3755 3.86945 24.753 4.24695C25.1306 4.62446 25.1306 5.23651 24.753 5.61403L22.0189 8.34817C21.6413 8.72567 21.0293 8.72567 20.6519 8.34817ZM15.4667 24.1667C15.4667 23.6329 15.0339 23.2 14.5 23.2C13.9661 23.2 13.5333 23.6329 13.5333 24.1667V28.0333C13.5333 28.5671 13.9661 29 14.5 29C15.0339 29 15.4667 28.5671 15.4667 28.0333V24.1667ZM20.6519 20.6519C21.0293 20.2743 21.6413 20.2743 22.0189 20.6519L24.753 23.386C25.1306 23.7636 25.1306 24.3755 24.753 24.753C24.3755 25.1306 23.7636 25.1306 23.386 24.753L20.6519 22.0189C20.2743 21.6413 20.2743 21.0293 20.6519 20.6519ZM10.6333 14.5C10.6333 12.3645 12.3645 10.6333 14.5 10.6333C16.6355 10.6333 18.3667 12.3645 18.3667 14.5C18.3667 16.6355 16.6355 18.3667 14.5 18.3667C12.3645 18.3667 10.6333 16.6355 10.6333 14.5ZM14.5 8.7C11.2968 8.7 8.7 11.2968 8.7 14.5C8.7 17.7032 11.2968 20.3 14.5 20.3C17.7032 20.3 20.3 17.7032 20.3 14.5C20.3 11.2968 17.7032 8.7 14.5 8.7Z" fill="white"/>
</g>
<defs>
<clipPath id="clip0_10_60">
<rect width="29" height="29" fill="white"/>
</clipPath>
</defs>
</svg>
