<?xml version="1.0" encoding="UTF-8" standalone="no"?>
<!-- Created with Inkscape (http://www.inkscape.org/) -->

<svg
   width="33.866657mm"
   height="20.318932mm"
   viewBox="0 0 33.866657 20.318932"
   version="1.1"
   id="svg1"
   xml:space="preserve"
   inkscape:export-filename="bitmap.svg"
   inkscape:export-xdpi="96"
   inkscape:export-ydpi="96"
   xmlns:inkscape="http://www.inkscape.org/namespaces/inkscape"
   xmlns:sodipodi="http://sodipodi.sourceforge.net/DTD/sodipodi-0.dtd"
   xmlns="http://www.w3.org/2000/svg"
   xmlns:svg="http://www.w3.org/2000/svg"><sodipodi:namedview
     id="namedview1"
     pagecolor="#ffffff"
     bordercolor="#000000"
     borderopacity="0.25"
     inkscape:showpageshadow="2"
     inkscape:pageopacity="0.0"
     inkscape:pagecheckerboard="0"
     inkscape:deskcolor="#d1d1d1"
     inkscape:document-units="mm"
     inkscape:export-bgcolor="#fafafa00" /><defs
     id="defs1" /><g
     inkscape:label="Camada 1"
     inkscape:groupmode="layer"
     id="layer1"
     transform="translate(-87.36677,-138.04879)"><path
       d="m 104.3001,138.04879 c -4.515637,0 -7.336897,2.25689 -8.466667,6.77254 1.6928,-2.25716 3.66898,-3.10356 5.926137,-2.53921 1.28879,0.32121 2.2098,1.25571 3.22977,2.29129 1.65999,1.68461 3.5814,3.63485 7.77743,3.63485 4.51537,0 7.33689,-2.25716 8.46666,-6.77386 -1.69307,2.25848 -3.66897,3.10488 -5.9264,2.54053 -1.28852,-0.32147 -2.20848,-1.25572 -3.22977,-2.2913 -1.65894,-1.6846 -3.57981,-3.63484 -7.77716,-3.63484 z m -8.466667,10.15947 c -4.51538,0 -7.336897,2.25716 -8.466668,6.77386 1.692804,-2.25848 3.668708,-3.10488 5.926138,-2.54053 1.28878,0.32147 2.2098,1.25571 3.22977,2.29129 1.65999,1.68461 3.581397,3.63485 7.777427,3.63485 4.51538,0 7.33689,-2.2569 8.46667,-6.77254 -1.69307,2.25716 -3.66898,3.10356 -5.92641,2.53921 -1.28852,-0.32121 -2.20847,-1.25572 -3.22977,-2.2913 -1.65893,-1.6846 -3.57981,-3.63484 -7.777157,-3.63484 z m 0,0"
       fill="#38bdf8"
       id="path1"
       style="fill:#333333;stroke-width:0.264583" /></g></svg>
